[Header]
FileType HTR
DataType HTRS
FileVersion 1
NumSegments 36
NumFrames 4
DataFrameRate 120
EulerRotationOrder ZYX
CalibrationUnits mm
RotationUnits Degrees
GlobalAxisofGravity Y
BoneLengthAxis Y
ScaleFactor 1.0
[SegmentNames&Hierarchy]
Hips	GLOBAL
Spine	Hips
Spine1	Spine
Spine2	Spine1
Spine3	Spine2
Neck	Spine3
Head	Neck
HeadEnd	Head
RightShoulder	Spine3
RightArm	RightShoulder
RightForeArm	RightArm
RightForeArmRoll	RightForeArm
RightHand	RightForeArmRoll
RightHandEnd	RightHand
R_FingersEnd	RightHandEnd
RightHandThumb1	RightHand
RightHandThumb2	RightHandThumb1
LeftShoulder	Spine3
LeftArm	LeftShoulder
LeftForeArm	LeftArm
LeftForeArmRoll	LeftForeArm
LeftHand	LeftForeArmRoll
LeftHandEnd	LeftHand
L_FingersEnd	LeftHandEnd
LeftHandThumb1	LeftHand
LeftHandThumb2	LeftHandThumb1
RightUpLeg	Hips
RightLeg	RightUpLeg
RightFoot	RightLeg
RightToeBase	RightFoot
RightToeBaseEnd	RightToeBase
LeftUpLeg	Hips
LeftLeg	LeftUpLeg
LeftFoot	LeftLeg
LeftToeBase	LeftFoot
LeftToeBaseEnd	LeftToeBase
[BasePosition]
Hips	0	0	0	0	0	0	1
Spine	0	0	0	-10	-0	0	1
Spine1	0	0	0	5	0	0	1
Spine2	0	0	0	5	0	0	1
Spine3	0	0	0	0	0	0	1
Neck	0	0	0	10	0	0	1
Head	0	0	0	-10	-0	0	1
HeadEnd	0	0	0	0	0	0	1
RightShoulder	0	0	0	-180	-0	-180	1
RightArm	0	0	0	0	0	0	1
RightForeArm	0	0	0	0	0	0	1
RightForeArmRoll	0	0	0	0	0	0	1
RightHand	0	0	0	0	0	0	1
RightHandEnd	0	0	0	-90	-0	0	1
R_FingersEnd	0	0	0	0	0	0	1
RightHandThumb1	0	0	0	170	-0	-15	1
RightHandThumb2	0	0	0	0	0	0	1
LeftShoulder	0	0	0	0	0	0	1
LeftArm	0	0	0	0	0	0	1
LeftForeArm	0	0	0	0	0	0	1
LeftForeArmRoll	0	0	0	0	0	0	1
LeftHand	0	0	0	0	0	0	1
LeftHandEnd	0	0	0	90	0	0	1
L_FingersEnd	0	0	0	0	0	0	1
LeftHandThumb1	0	0	0	170	-0	-15	1
LeftHandThumb2	0	0	0	0	0	0	1
RightUpLeg	0	0	0	-0	90	0	1
RightLeg	0	0	0	0	0	0	1
RightFoot	0	0	0	0	-0	-70	1
RightToeBase	0	0	0	0	-0	-20	1
RightToeBaseEnd	0	0	0	0	0	0	1
LeftUpLeg	0	0	0	-0	90	0	1
LeftLeg	0	0	0	0	0	0	1
LeftFoot	0	0	0	0	-0	-70	1
LeftToeBase	0	0	0	0	-0	-20	1
LeftToeBaseEnd	0	0	0	0	0	0	1
[Hips]
113	-6.385287285	971.0470581	-21.92998123	-88.90380859	-0.04729650542	0.1588338017	1.0
114	-6.363108158	971.0550537	-21.96216965	-88.90953064	-0.05190855265	0.1575197279	1.0
115	-6.340604782	971.0620117	-21.99376869	-88.91638947	-0.05638824776	0.1556692272	1.0
116	-6.317959309	971.0675049	-22.0254879	-88.92394257	-0.06085531786	0.1541985124	1.0
[Spine]
113	0	44.87670517	67.31505585	-0.2453091145	0.3254211843	0.06229020283	1.0
114	0	44.87670517	67.31505585	-0.2460376471	0.3224675655	0.06196651608	1.0
115	0	44.87670517	67.31505585	-0.2463935912	0.3191295862	0.06175476313	1.0
116	0	44.87670517	67.31505585	-0.2467776984	0.315946281	0.06154514849	1.0
[Spine1]
113	0	0	89.75341034	-0.643755734	0.007662808523	-0.003582647303	1.0
114	0	0	89.75341034	-0.6449142694	0.00649559591	-0.003742844798	1.0
115	0	0	89.75341034	-0.6455726624	0.005446033087	-0.003866078332	1.0
116	0	0	89.75341034	-0.6462597847	0.004614894278	-0.003985851072	1.0
[Spine2]
113	0	0	89.75341034	1.490680337	0.4631201029	0.316909343	1.0
114	0	0	89.75341034	1.489517927	0.462916255	0.3165646791	1.0
115	0	0	89.75341034	1.488048315	0.462620616	0.3161916137	1.0
116	0	0	89.75341034	1.487115622	0.4623377025	0.3155336678	1.0
[Spine3]
113	0	0	89.75341034	0.1507863253	-0.4039627016	-0.079266496	1.0
114	0	0	89.75341034	0.1503172219	-0.4040244818	-0.07895738631	1.0
115	0	0	89.75341034	0.1494710892	-0.4044394791	-0.07839253545	1.0
116	0	0	89.75341034	0.1487456113	-0.4048632383	-0.07801167667	1.0
[Neck]
113	0	-33.65752792	235.6027069	-1.017709374	-0.2482948005	-0.1871307045	1.0
114	0	-33.65752792	235.6027069	-1.015822172	-0.2461567819	-0.1864654571	1.0
115	0	-33.65752792	235.6027069	-1.014596939	-0.2450180203	-0.1851832122	1.0
116	0	-33.65752792	235.6027069	-1.013336658	-0.2430144846	-0.1826418042	1.0
[Head]
113	0	0	123.4109421	-0.7767189145	-0.2129982412	-1.020797014	1.0
114	0	0	123.4109421	-0.7623872757	-0.1978760511	-1.024460196	1.0
115	0	0	123.4109421	-0.7461718321	-0.1790111065	-1.026350856	1.0
116	0	0	123.4109421	-0.7320165634	-0.1615469754	-1.025675178	1.0
[HeadEnd]
113	0	0	145.2883301	0	0	0	1.0
114	0	0	145.2883301	0	0	0	1.0
115	0	0	145.2883301	0	0	0	1.0
116	0	0	145.2883301	0	0	0	1.0
[RightShoulder]
113	-30.74827576	-51.24713135	166.0407104	-4.450502396	-6.149820328	0.9482380152	1.0
114	-30.74827576	-51.24713135	166.0407104	-4.457351685	-6.150841713	0.9463485479	1.0
115	-30.74827576	-51.24713135	166.0407104	-4.465116501	-6.151514053	0.9436814785	1.0
116	-30.74827576	-51.24713135	166.0407104	-4.47205162	-6.151986599	0.9405210018	1.0
[RightArm]
113	152.7164459	0	0	-24.68425941	-69.26413727	4.516929626	1.0
114	152.7164459	0	0	-24.72097778	-69.26501465	4.512400627	1.0
115	152.7164459	0	0	-24.76439667	-69.26719666	4.508274078	1.0
116	152.7164459	0	0	-24.80369949	-69.26987457	4.503908157	1.0
[RightForeArm]
113	297.8946228	0	0	0	0	-31.21653175	1.0
114	297.8946228	0	0	0	0	-31.21125031	1.0
115	297.8946228	0	0	0	0	-31.20539474	1.0
116	297.8946228	0	0	0	0	-31.19945717	1.0
[RightForeArmRoll]
113	122.9768982	0	0	4.878342628	0	0	1.0
114	122.9768982	0	0	4.81017971	0	0	1.0
115	122.9768982	0	0	4.730605125	0	0	1.0
116	122.9768982	0	0	4.648864746	0	0	1.0
[RightHand]
113	127.1009369	0	0	-5.094801963e-005	7.4142313	-3.30742836	1.0
114	127.1009369	0	0	-3.068927981e-005	7.510859966	-3.29385376	1.0
115	127.1009369	0	0	4.729472494e-006	7.622935295	-3.279122829	1.0
116	127.1009369	0	0	3.985817602e-005	7.720933914	-3.261662006	1.0
[RightHandEnd]
113	72.05677795	0	0	0	0	0	1.0
114	72.05677795	0	0	0	0	0	1.0
115	72.05677795	0	0	0	0	0	1.0
116	72.05677795	0	0	0	0	0	1.0
[R_FingersEnd]
113	72.05677795	0	0	0	0	0	1.0
114	72.05677795	0	0	0	0	0	1.0
115	72.05677795	0	0	0	0	0	1.0
116	72.05677795	0	0	0	0	0	1.0
[RightHandThumb1]
113	28.82271004	-48.03784943	19.2151413	0	0	0	1.0
114	28.82271004	-48.03784943	19.2151413	0	0	0	1.0
115	28.82271004	-48.03784943	19.2151413	0	0	0	1.0
116	28.82271004	-48.03784943	19.2151413	0	0	0	1.0
[RightHandThumb2]
113	72.05677795	0	0	0	0	0	1.0
114	72.05677795	0	0	0	0	0	1.0
115	72.05677795	0	0	0	0	0	1.0
116	72.05677795	0	0	0	0	0	1.0
[LeftShoulder]
113	30.74827576	-51.24713135	166.0407104	5.497721195	6.132945061	3.079197407	1.0
114	30.74827576	-51.24713135	166.0407104	5.507569313	6.144586563	3.082885504	1.0
115	30.74827576	-51.24713135	166.0407104	5.519711494	6.155815601	3.085877657	1.0
116	30.74827576	-51.24713135	166.0407104	5.531462669	6.164165497	3.089470863	1.0
[LeftArm]
113	152.7164459	0	0	4.028325081	68.77361298	-34.43080902	1.0
114	152.7164459	0	0	3.987749577	68.76321411	-34.46513748	1.0
115	152.7164459	0	0	3.939544201	68.75270081	-34.50570679	1.0
116	152.7164459	0	0	3.892752409	68.74447632	-34.54673004	1.0
[LeftForeArm]
113	297.8946228	0	0	0	0	-19.18266487	1.0
114	297.8946228	0	0	0	0	-19.17824173	1.0
115	297.8946228	0	0	0	0	-19.17230606	1.0
116	297.8946228	0	0	0	0	-19.16819763	1.0
[LeftForeArmRoll]
113	122.9768982	0	0	-4.492772579	0	0	1.0
114	122.9768982	0	0	-4.511931896	0	0	1.0
115	122.9768982	0	0	-4.531633377	0	0	1.0
116	122.9768982	0	0	-4.545461655	0	0	1.0
[LeftHand]
113	127.1009369	0	0	1.753355292e-007	-21.25731087	1.043918014	1.0
114	127.1009369	0	0	-7.281619673e-006	-21.25821114	1.035609603	1.0
115	127.1009369	0	0	4.42804776e-007	-21.2563591	1.029205561	1.0
116	127.1009369	0	0	1.280250399e-005	-21.25258827	1.026726723	1.0
[LeftHandEnd]
113	72.05677795	0	0	0	0	0	1.0
114	72.05677795	0	0	0	0	0	1.0
115	72.05677795	0	0	0	0	0	1.0
116	72.05677795	0	0	0	0	0	1.0
[L_FingersEnd]
113	72.05677795	0	0	0	0	0	1.0
114	72.05677795	0	0	0	0	0	1.0
115	72.05677795	0	0	0	0	0	1.0
116	72.05677795	0	0	0	0	0	1.0
[LeftHandThumb1]
113	28.82271004	-48.03784943	-19.2151413	0	0	0	1.0
114	28.82271004	-48.03784943	-19.2151413	0	0	0	1.0
115	28.82271004	-48.03784943	-19.2151413	0	0	0	1.0
116	28.82271004	-48.03784943	-19.2151413	0	0	0	1.0
[LeftHandThumb2]
113	72.05677795	0	0	0	0	0	1.0
114	72.05677795	0	0	0	0	0	1.0
115	72.05677795	0	0	0	0	0	1.0
116	72.05677795	0	0	0	0	0	1.0
[RightUpLeg]
113	-91.21989441	0	-26.64850616	9.373609543	4.201898575	-0.847866118	1.0
114	-91.21989441	0	-26.64850616	9.356818199	4.199158669	-0.843247354	1.0
115	-91.21989441	0	-26.64850616	9.339318275	4.195598602	-0.8375982046	1.0
116	-91.21989441	0	-26.64850616	9.324292183	4.193025589	-0.8312005997	1.0
[RightLeg]
113	402.8824463	0	0	0	0	14.42935371	1.0
114	402.8824463	0	0	0	0	14.42520905	1.0
115	402.8824463	0	0	0	0	14.42174911	1.0
116	402.8824463	0	0	0	0	14.41857147	1.0
[RightFoot]
113	435.9781189	0	0	4.433800697	-1.797152877	-14.76429462	1.0
114	435.9781189	0	0	4.437542915	-1.785915375	-14.76277733	1.0
115	435.9781189	0	0	4.441087246	-1.773825645	-14.76210594	1.0
116	435.9781189	0	0	4.443932056	-1.763970613	-14.76107407	1.0
[RightToeBase]
113	183.1846619	0	0	0	0	0.8750891685	1.0
114	183.1846619	0	0	0	0	0.8792283535	1.0
115	183.1846619	0	0	0	0	0.8866927624	1.0
116	183.1846619	0	0	0	0	0.8939733505	1.0
[RightToeBaseEnd]
113	73.79586792	0	0	0	0	0	1.0
114	73.79586792	0	0	0	0	0	1.0
115	73.79586792	0	0	0	0	0	1.0
116	73.79586792	0	0	0	0	0	1.0
[LeftUpLeg]
113	91.21989441	0	-26.64850616	0.7269250154	-5.151221752	0.2217886895	1.0
114	91.21989441	0	-26.64850616	0.725708425	-5.151998997	0.2249910533	1.0
115	91.21989441	0	-26.64850616	0.7287778854	-5.153273582	0.2299164534	1.0
116	91.21989441	0	-26.64850616	0.7319683433	-5.153796673	0.2361815125	1.0
[LeftLeg]
113	402.8824463	0	0	0	0	11.10623932	1.0
114	402.8824463	0	0	0	0	11.1086092	1.0
115	402.8824463	0	0	0	0	11.11032581	1.0
116	402.8824463	0	0	0	0	11.111022	1.0
[LeftFoot]
113	435.9781189	0	0	-7.988372803	-0.3818700016	-12.52743912	1.0
114	435.9781189	0	0	-7.998545647	-0.3811634183	-12.52703476	1.0
115	435.9781189	0	0	-8.013023376	-0.3831362724	-12.52682495	1.0
116	435.9781189	0	0	-8.025490761	-0.3863957524	-12.526227	1.0
[LeftToeBase]
113	183.1846619	0	0	0	0	0.8029649854	1.0
114	183.1846619	0	0	0	0	0.8030382395	1.0
115	183.1846619	0	0	0	0	0.8038392663	1.0
116	183.1846619	0	0	0	0	0.8051448464	1.0
[LeftToeBaseEnd]
113	73.79586792	0	0	0	0	0	1.0
114	73.79586792	0	0	0	0	0	1.0
115	73.79586792	0	0	0	0	0	1.0
116	73.79586792	0	0	0	0	0	1.0
[EndOfFile]
